<mxfile host="app.diagrams.net" modified="2022-02-18T07:44:44.053Z" agent="5.0 (X11; Linux x86_64) AppleWebKit/537.36 (KHTML, like Gecko) Chrome/100.0.4867.0 Safari/537.36" etag="UDv6NjcLSiS_SfqY5zw2" version="16.6.1" type="github">
  <diagram id="ZkddQLaWkZWpgFOKe8Xj" name="Page-1">
    <mxGraphModel dx="1422" dy="614" grid="1" gridSize="10" guides="1" tooltips="1" connect="1" arrows="1" fold="1" page="1" pageScale="1" pageWidth="827" pageHeight="1169" math="0" shadow="0">
      <root>
        <mxCell id="0" />
        <mxCell id="1" parent="0" />
        <mxCell id="hhDA7nrlv6wlv6P9GEHd-1" value="customers" style="swimlane;fontStyle=1;align=center;verticalAlign=top;childLayout=stackLayout;horizontal=1;startSize=26;horizontalStack=0;resizeParent=1;resizeParentMax=0;resizeLast=0;collapsible=1;marginBottom=0;" parent="1" vertex="1">
          <mxGeometry x="30" y="30" width="160" height="230" as="geometry" />
        </mxCell>
        <mxCell id="hhDA7nrlv6wlv6P9GEHd-2" value="- id&#xa;-id travel folder : int&#xa;- pseudo : string&#xa;- password: string&#xa;- first_name: sting&#xa;- last_name: string&#xa;- address : string&#xa;- mail : string&#xa;- phone : number&#xa;&#xa;" style="text;strokeColor=none;fillColor=none;align=left;verticalAlign=top;spacingLeft=4;spacingRight=4;overflow=hidden;rotatable=0;points=[[0,0.5],[1,0.5]];portConstraint=eastwest;" parent="hhDA7nrlv6wlv6P9GEHd-1" vertex="1">
          <mxGeometry y="26" width="160" height="144" as="geometry" />
        </mxCell>
        <mxCell id="hhDA7nrlv6wlv6P9GEHd-3" value="" style="line;strokeWidth=1;fillColor=none;align=left;verticalAlign=middle;spacingTop=-1;spacingLeft=3;spacingRight=3;rotatable=0;labelPosition=right;points=[];portConstraint=eastwest;" parent="hhDA7nrlv6wlv6P9GEHd-1" vertex="1">
          <mxGeometry y="170" width="160" height="8" as="geometry" />
        </mxCell>
        <mxCell id="hhDA7nrlv6wlv6P9GEHd-4" value="+reservation&#xa;+payment&#xa;+cancellation request&#xa;" style="text;strokeColor=none;fillColor=none;align=left;verticalAlign=top;spacingLeft=4;spacingRight=4;overflow=hidden;rotatable=0;points=[[0,0.5],[1,0.5]];portConstraint=eastwest;" parent="hhDA7nrlv6wlv6P9GEHd-1" vertex="1">
          <mxGeometry y="178" width="160" height="52" as="geometry" />
        </mxCell>
        <mxCell id="hhDA7nrlv6wlv6P9GEHd-7" value="travel agencies" style="swimlane;fontStyle=1;align=center;verticalAlign=top;childLayout=stackLayout;horizontal=1;startSize=26;horizontalStack=0;resizeParent=1;resizeParentMax=0;resizeLast=0;collapsible=1;marginBottom=0;" parent="1" vertex="1">
          <mxGeometry x="440" y="30" width="160" height="190" as="geometry" />
        </mxCell>
        <mxCell id="hhDA7nrlv6wlv6P9GEHd-8" value="- id :int&#xa;- name : string&#xa;- siren number : int&#xa;- mail : string&#xa;- address : string&#xa;- phone : int" style="text;strokeColor=none;fillColor=none;align=left;verticalAlign=top;spacingLeft=4;spacingRight=4;overflow=hidden;rotatable=0;points=[[0,0.5],[1,0.5]];portConstraint=eastwest;" parent="hhDA7nrlv6wlv6P9GEHd-7" vertex="1">
          <mxGeometry y="26" width="160" height="104" as="geometry" />
        </mxCell>
        <mxCell id="hhDA7nrlv6wlv6P9GEHd-9" value="" style="line;strokeWidth=1;fillColor=none;align=left;verticalAlign=middle;spacingTop=-1;spacingLeft=3;spacingRight=3;rotatable=0;labelPosition=right;points=[];portConstraint=eastwest;" parent="hhDA7nrlv6wlv6P9GEHd-7" vertex="1">
          <mxGeometry y="130" width="160" height="8" as="geometry" />
        </mxCell>
        <mxCell id="hhDA7nrlv6wlv6P9GEHd-10" value="+ create travel folder&#xa;+ flight reservation&#xa;+  cancellation request" style="text;strokeColor=none;fillColor=none;align=left;verticalAlign=top;spacingLeft=4;spacingRight=4;overflow=hidden;rotatable=0;points=[[0,0.5],[1,0.5]];portConstraint=eastwest;" parent="hhDA7nrlv6wlv6P9GEHd-7" vertex="1">
          <mxGeometry y="138" width="160" height="52" as="geometry" />
        </mxCell>
        <mxCell id="hhDA7nrlv6wlv6P9GEHd-16" value="travel folder" style="swimlane;fontStyle=1;align=center;verticalAlign=top;childLayout=stackLayout;horizontal=1;startSize=26;horizontalStack=0;resizeParent=1;resizeParentMax=0;resizeLast=0;collapsible=1;marginBottom=0;" parent="1" vertex="1">
          <mxGeometry x="230" y="160" width="170" height="210" as="geometry" />
        </mxCell>
        <mxCell id="hhDA7nrlv6wlv6P9GEHd-64" value="" style="endArrow=diamondThin;endFill=1;endSize=24;html=1;rounded=0;entryX=0.5;entryY=0;entryDx=0;entryDy=0;" parent="hhDA7nrlv6wlv6P9GEHd-16" target="hhDA7nrlv6wlv6P9GEHd-16" edge="1">
          <mxGeometry width="160" relative="1" as="geometry">
            <mxPoint x="85" y="-80" as="sourcePoint" />
            <mxPoint x="140" as="targetPoint" />
          </mxGeometry>
        </mxCell>
        <mxCell id="hhDA7nrlv6wlv6P9GEHd-17" value="- id : number&#xa;- flight go : number&#xa;- flight return : number&#xa;- date go : dateTime&#xa;- date return : dateTime&#xa;- payment : boolean&#xa;- stopover &#xa;payed : bool&#xa;" style="text;strokeColor=none;fillColor=none;align=left;verticalAlign=top;spacingLeft=4;spacingRight=4;overflow=hidden;rotatable=0;points=[[0,0.5],[1,0.5]];portConstraint=eastwest;" parent="hhDA7nrlv6wlv6P9GEHd-16" vertex="1">
          <mxGeometry y="26" width="170" height="154" as="geometry" />
        </mxCell>
        <mxCell id="hhDA7nrlv6wlv6P9GEHd-18" value="" style="line;strokeWidth=1;fillColor=none;align=left;verticalAlign=middle;spacingTop=-1;spacingLeft=3;spacingRight=3;rotatable=0;labelPosition=right;points=[];portConstraint=eastwest;" parent="hhDA7nrlv6wlv6P9GEHd-16" vertex="1">
          <mxGeometry y="180" width="170" height="8" as="geometry" />
        </mxCell>
        <mxCell id="hhDA7nrlv6wlv6P9GEHd-19" value="+ method(type): type" style="text;strokeColor=none;fillColor=none;align=left;verticalAlign=top;spacingLeft=4;spacingRight=4;overflow=hidden;rotatable=0;points=[[0,0.5],[1,0.5]];portConstraint=eastwest;" parent="hhDA7nrlv6wlv6P9GEHd-16" vertex="1">
          <mxGeometry y="188" width="170" height="22" as="geometry" />
        </mxCell>
        <mxCell id="hhDA7nrlv6wlv6P9GEHd-24" value="flight" style="swimlane;fontStyle=1;align=center;verticalAlign=top;childLayout=stackLayout;horizontal=1;startSize=26;horizontalStack=0;resizeParent=1;resizeParentMax=0;resizeLast=0;collapsible=1;marginBottom=0;" parent="1" vertex="1">
          <mxGeometry x="667" y="260" width="160" height="120" as="geometry" />
        </mxCell>
        <mxCell id="hhDA7nrlv6wlv6P9GEHd-25" value="- id : int&#xa;- user &#xa;+ destination&#xa;+ depart : date&#xa;+ arrived : date&#xa;+cancelled : boolean&#xa;" style="text;strokeColor=none;fillColor=none;align=left;verticalAlign=top;spacingLeft=4;spacingRight=4;overflow=hidden;rotatable=0;points=[[0,0.5],[1,0.5]];portConstraint=eastwest;" parent="hhDA7nrlv6wlv6P9GEHd-24" vertex="1">
          <mxGeometry y="26" width="160" height="94" as="geometry" />
        </mxCell>
        <mxCell id="hhDA7nrlv6wlv6P9GEHd-32" value="plane agency" style="swimlane;fontStyle=1;align=center;verticalAlign=top;childLayout=stackLayout;horizontal=1;startSize=26;horizontalStack=0;resizeParent=1;resizeParentMax=0;resizeLast=0;collapsible=1;marginBottom=0;" parent="1" vertex="1">
          <mxGeometry x="667" y="30" width="160" height="174" as="geometry" />
        </mxCell>
        <mxCell id="hhDA7nrlv6wlv6P9GEHd-33" value="- name&#xa;- siren number&#xa;- mail&#xa;- address &#xa;- phone" style="text;strokeColor=none;fillColor=none;align=left;verticalAlign=top;spacingLeft=4;spacingRight=4;overflow=hidden;rotatable=0;points=[[0,0.5],[1,0.5]];portConstraint=eastwest;" parent="hhDA7nrlv6wlv6P9GEHd-32" vertex="1">
          <mxGeometry y="26" width="160" height="114" as="geometry" />
        </mxCell>
        <mxCell id="hhDA7nrlv6wlv6P9GEHd-34" value="" style="line;strokeWidth=1;fillColor=none;align=left;verticalAlign=middle;spacingTop=-1;spacingLeft=3;spacingRight=3;rotatable=0;labelPosition=right;points=[];portConstraint=eastwest;" parent="hhDA7nrlv6wlv6P9GEHd-32" vertex="1">
          <mxGeometry y="140" width="160" height="8" as="geometry" />
        </mxCell>
        <mxCell id="hhDA7nrlv6wlv6P9GEHd-35" value="- cancelled flight" style="text;strokeColor=none;fillColor=none;align=left;verticalAlign=top;spacingLeft=4;spacingRight=4;overflow=hidden;rotatable=0;points=[[0,0.5],[1,0.5]];portConstraint=eastwest;" parent="hhDA7nrlv6wlv6P9GEHd-32" vertex="1">
          <mxGeometry y="148" width="160" height="26" as="geometry" />
        </mxCell>
        <mxCell id="hhDA7nrlv6wlv6P9GEHd-40" value="" style="endArrow=diamondThin;endFill=0;endSize=24;html=1;rounded=0;entryX=1.035;entryY=0.669;entryDx=0;entryDy=0;entryPerimeter=0;" parent="1" target="hhDA7nrlv6wlv6P9GEHd-17" edge="1">
          <mxGeometry width="160" relative="1" as="geometry">
            <mxPoint x="660" y="290" as="sourcePoint" />
            <mxPoint x="660" y="318" as="targetPoint" />
          </mxGeometry>
        </mxCell>
        <mxCell id="hhDA7nrlv6wlv6P9GEHd-41" value="Use" style="endArrow=open;endSize=12;dashed=1;html=1;rounded=0;" parent="1" edge="1">
          <mxGeometry width="160" relative="1" as="geometry">
            <mxPoint x="600" y="110" as="sourcePoint" />
            <mxPoint x="660" y="110" as="targetPoint" />
          </mxGeometry>
        </mxCell>
        <mxCell id="hhDA7nrlv6wlv6P9GEHd-42" value="Use" style="endArrow=open;endSize=12;dashed=1;html=1;rounded=0;entryX=0;entryY=0.24;entryDx=0;entryDy=0;entryPerimeter=0;" parent="1" target="hhDA7nrlv6wlv6P9GEHd-8" edge="1">
          <mxGeometry x="0.333" y="11" width="160" relative="1" as="geometry">
            <mxPoint x="200" y="80" as="sourcePoint" />
            <mxPoint x="360" y="80" as="targetPoint" />
            <mxPoint as="offset" />
          </mxGeometry>
        </mxCell>
        <mxCell id="hhDA7nrlv6wlv6P9GEHd-51" value="Use" style="endArrow=open;endSize=12;dashed=1;html=1;rounded=0;entryX=0.456;entryY=-0.013;entryDx=0;entryDy=0;entryPerimeter=0;" parent="1" target="hhDA7nrlv6wlv6P9GEHd-24" edge="1">
          <mxGeometry width="160" relative="1" as="geometry">
            <mxPoint x="740" y="200" as="sourcePoint" />
            <mxPoint x="900" y="200" as="targetPoint" />
          </mxGeometry>
        </mxCell>
        <mxCell id="hhDA7nrlv6wlv6P9GEHd-52" value="airport" style="swimlane;fontStyle=1;align=center;verticalAlign=top;childLayout=stackLayout;horizontal=1;startSize=26;horizontalStack=0;resizeParent=1;resizeParentMax=0;resizeLast=0;collapsible=1;marginBottom=0;" parent="1" vertex="1">
          <mxGeometry x="440" y="390" width="160" height="160" as="geometry" />
        </mxCell>
        <mxCell id="hhDA7nrlv6wlv6P9GEHd-53" value="- id &#xa;- name&#xa;- address&#xa;- phone" style="text;strokeColor=none;fillColor=none;align=left;verticalAlign=top;spacingLeft=4;spacingRight=4;overflow=hidden;rotatable=0;points=[[0,0.5],[1,0.5]];portConstraint=eastwest;" parent="hhDA7nrlv6wlv6P9GEHd-52" vertex="1">
          <mxGeometry y="26" width="160" height="74" as="geometry" />
        </mxCell>
        <mxCell id="hhDA7nrlv6wlv6P9GEHd-54" value="" style="line;strokeWidth=1;fillColor=none;align=left;verticalAlign=middle;spacingTop=-1;spacingLeft=3;spacingRight=3;rotatable=0;labelPosition=right;points=[];portConstraint=eastwest;" parent="hhDA7nrlv6wlv6P9GEHd-52" vertex="1">
          <mxGeometry y="100" width="160" height="8" as="geometry" />
        </mxCell>
        <mxCell id="hhDA7nrlv6wlv6P9GEHd-55" value="+ verification identity &#xa;+ verification ticket&#xa;+ verification luggage &#xa;" style="text;strokeColor=none;fillColor=none;align=left;verticalAlign=top;spacingLeft=4;spacingRight=4;overflow=hidden;rotatable=0;points=[[0,0.5],[1,0.5]];portConstraint=eastwest;" parent="hhDA7nrlv6wlv6P9GEHd-52" vertex="1">
          <mxGeometry y="108" width="160" height="52" as="geometry" />
        </mxCell>
        <mxCell id="hhDA7nrlv6wlv6P9GEHd-56" value="destination" style="swimlane;fontStyle=1;align=center;verticalAlign=top;childLayout=stackLayout;horizontal=1;startSize=26;horizontalStack=0;resizeParent=1;resizeParentMax=0;resizeLast=0;collapsible=1;marginBottom=0;" parent="1" vertex="1">
          <mxGeometry x="667" y="440" width="160" height="70" as="geometry" />
        </mxCell>
        <mxCell id="hhDA7nrlv6wlv6P9GEHd-57" value="- id&#xa;+ name" style="text;strokeColor=none;fillColor=none;align=left;verticalAlign=top;spacingLeft=4;spacingRight=4;overflow=hidden;rotatable=0;points=[[0,0.5],[1,0.5]];portConstraint=eastwest;" parent="hhDA7nrlv6wlv6P9GEHd-56" vertex="1">
          <mxGeometry y="26" width="160" height="44" as="geometry" />
        </mxCell>
        <mxCell id="hhDA7nrlv6wlv6P9GEHd-62" value="" style="endArrow=diamondThin;endFill=1;endSize=24;html=1;rounded=0;exitX=0.488;exitY=1.048;exitDx=0;exitDy=0;exitPerimeter=0;" parent="1" source="hhDA7nrlv6wlv6P9GEHd-25" edge="1">
          <mxGeometry width="160" relative="1" as="geometry">
            <mxPoint x="730" y="460" as="sourcePoint" />
            <mxPoint x="745" y="440" as="targetPoint" />
          </mxGeometry>
        </mxCell>
        <mxCell id="hhDA7nrlv6wlv6P9GEHd-63" value="1" style="endArrow=open;html=1;endSize=12;startArrow=diamondThin;startSize=14;startFill=1;edgeStyle=orthogonalEdgeStyle;align=left;verticalAlign=bottom;rounded=0;entryX=0.5;entryY=0;entryDx=0;entryDy=0;exitX=-0.019;exitY=0.419;exitDx=0;exitDy=0;exitPerimeter=0;" parent="1" source="hhDA7nrlv6wlv6P9GEHd-25" target="hhDA7nrlv6wlv6P9GEHd-52" edge="1">
          <mxGeometry x="-1" y="3" relative="1" as="geometry">
            <mxPoint x="500" y="330" as="sourcePoint" />
            <mxPoint x="660" y="330" as="targetPoint" />
          </mxGeometry>
        </mxCell>
        <mxCell id="hhDA7nrlv6wlv6P9GEHd-65" value="Use" style="endArrow=open;endSize=12;dashed=1;html=1;rounded=0;entryX=0;entryY=0.784;entryDx=0;entryDy=0;entryPerimeter=0;" parent="1" target="hhDA7nrlv6wlv6P9GEHd-53" edge="1">
          <mxGeometry x="-0.0321" y="-17" width="160" relative="1" as="geometry">
            <mxPoint x="100" y="280" as="sourcePoint" />
            <mxPoint x="260" y="280" as="targetPoint" />
            <Array as="points">
              <mxPoint x="220" y="420" />
            </Array>
            <mxPoint as="offset" />
          </mxGeometry>
        </mxCell>
      </root>
    </mxGraphModel>
  </diagram>
</mxfile>
